<svg width="41" height="42" viewBox="0 0 41 42" fill="none" xmlns="http://www.w3.org/2000/svg">
<path d="M17.9071 1.05076C21.4409 0.668427 24.9957 1.23327 28.2143 2.66362C29.6087 3.28331 30.0017 5.0068 29.1964 6.30294C28.3912 7.59902 26.692 7.96848 25.2671 7.4226C23.1256 6.60219 20.8075 6.29525 18.5016 6.54472C15.274 6.89396 12.2558 8.31319 9.92843 10.5766C7.60107 12.8399 6.09809 15.8173 5.65905 19.0339C5.22003 22.2505 5.87021 25.5215 7.50584 28.3258C9.14146 31.13 11.6685 33.3062 14.6844 34.5077C17.7004 35.7091 21.0322 35.8666 24.1481 34.9551C27.2638 34.0435 29.9848 32.1154 31.8777 29.478C33.2301 27.5937 34.1042 25.4248 34.4444 23.1568C34.6707 21.6478 35.829 20.3509 37.3535 20.288C38.8782 20.2253 40.1849 21.4155 40.0378 22.9343C39.6983 26.4401 38.4397 29.8123 36.3671 32.7001C33.7548 36.3399 29.9994 39.0006 25.6994 40.2585C21.3994 41.5164 16.802 41.2991 12.6398 39.6411C8.47766 37.9831 4.9897 34.9802 2.7324 31.1102C0.475143 27.2402 -0.421426 22.7259 0.184396 18.2869C0.790278 13.8479 2.86389 9.73883 6.07568 6.61526C9.28753 3.49168 13.4528 1.53273 17.9071 1.05076ZM33.9572 8.34328C36.344 8.34335 38.279 10.2783 38.2791 12.6651C38.2791 15.052 36.344 16.9869 33.9572 16.987C31.5703 16.987 29.6354 15.052 29.6354 12.6651C29.6354 10.2783 31.5704 8.34328 33.9572 8.34328Z" fill="#BE3B41"/>
</svg>
