<svg width="24" height="24" viewBox="0 0 24 24" fill="none" xmlns="http://www.w3.org/2000/svg">
<path d="M10.7091 0.0696298C12.8225 -0.159022 14.9483 0.178774 16.8732 1.03418C17.7071 1.40478 17.9421 2.43548 17.4605 3.21062C16.979 3.98573 15.9628 4.20668 15.1107 3.88022C13.83 3.38959 12.4436 3.20603 11.0646 3.35522C9.13439 3.56407 7.32941 4.41283 5.93757 5.7664C4.54572 7.11999 3.64688 8.90056 3.38432 10.8242C3.12177 12.7479 3.5106 14.704 4.48877 16.3811C5.46693 18.0581 6.97821 19.3596 8.7818 20.0781C10.5855 20.7966 12.578 20.8908 14.4414 20.3457C16.3048 19.8005 17.932 18.6474 19.064 17.0702C19.8728 15.9433 20.3956 14.6462 20.599 13.2899C20.7344 12.3874 21.427 11.6118 22.3388 11.5742C23.2506 11.5367 24.032 12.2485 23.9441 13.1568C23.7411 15.2534 22.9884 17.2701 21.7489 18.9971C20.1866 21.1738 17.9407 22.765 15.3692 23.5173C12.7976 24.2696 10.0482 24.1396 7.55908 23.1481C5.06995 22.1565 2.98402 20.3607 1.63408 18.0462C0.284153 15.7319 -0.252028 13.0322 0.110276 10.3775C0.472615 7.72276 1.71271 5.26541 3.63348 3.3974C5.55429 1.52939 8.04528 0.357862 10.7091 0.0696298ZM20.3077 4.43082C21.7351 4.43087 22.8923 5.58805 22.8923 7.01544C22.8923 8.44286 21.7351 9.60002 20.3077 9.60007C18.8802 9.60007 17.723 8.44289 17.723 7.01544C17.7231 5.58802 18.8802 4.43082 20.3077 4.43082Z" fill="#BE3B41"/>
</svg>
